<svg id="Layer_1" data-name="Layer 1" xmlns="http://www.w3.org/2000/svg" viewBox="0 0 43.08 12.95"><defs><style>.cls-1{fill:#b88c2d;}.cls-2,.cls-3{fill:#c9b13d;}.cls-3{font-size:4.64px;font-family:Chalkboard-Bold, Chalkboard;font-weight:700;}.cls-4{letter-spacing:-0.02em;}.cls-5{letter-spacing:-0.07em;}.cls-6{letter-spacing:-0.05em;}.cls-7{letter-spacing:-0.03em;}.cls-8{letter-spacing:-0.04em;}.cls-9{letter-spacing:-0.03em;}.cls-10{letter-spacing:0.03em;}.cls-11{letter-spacing:0.01em;}.cls-12{letter-spacing:-0.04em;}</style></defs><title>create-account-botton</title><path class="cls-1" d="M42.83,9.56v.36c0,.49,0,.5.07.56v.65a5.57,5.57,0,0,1,0,1v-1h0a7.25,7.25,0,0,1,0-.81v.18c0-1.18-.11-.32-.13-1.3A1.51,1.51,0,0,1,42.83,9.56Z" transform="translate(0.01 -0.01)"/><path class="cls-1" d="M43,8.55l-.08-.41V7.45s0-.51-.07-.17v.31c-.06-.08,0-.92-.09-.72a7.35,7.35,0,0,0,0,1V9a.81.81,0,0,0,0,.36V9.2h.09a4.66,4.66,0,0,1,0-.48l.1.81a12.8,12.8,0,0,0,.13-1.38C43,8.49,43.06,7.79,43,8.55Z" transform="translate(0.01 -0.01)"/><path class="cls-1" d="M42.84,9.3" transform="translate(0.01 -0.01)"/><path class="cls-1" d="M1.13,11.2V9.51c0,.06,0,.62-.06.25a3.18,3.18,0,0,0,0,.75v-.14c0,.45,0,.75-.07.46H1l.08.58a.93.93,0,0,0,.08.38C1.2,11.51,1.13,11.66,1.13,11.2Z" transform="translate(0.01 -0.01)"/><path class="cls-1" d="M39.75,12.05Z" transform="translate(0.01 -0.01)"/><path class="cls-1" d="M1.35,11.83l.24-.05Z" transform="translate(0.01 -0.01)"/><path class="cls-1" d="M.44,9.66h0v.17h0Z" transform="translate(0.01 -0.01)"/><path class="cls-1" d="M9.9,11.66" transform="translate(0.01 -0.01)"/><path class="cls-1" d="M.12,4.45V5.54a4.42,4.42,0,0,1,.15.93,3.44,3.44,0,0,0,0-.92V5.33l-.1-.67Z" transform="translate(0.01 -0.01)"/><path class="cls-1" d="M27.73,12.41" transform="translate(0.01 -0.01)"/><path class="cls-1" d="M27.69,12.44" transform="translate(0.01 -0.01)"/><path class="cls-1" d="M1.23,11.88Z" transform="translate(0.01 -0.01)"/><path class="cls-1" d="M1.06,11.55Z" transform="translate(0.01 -0.01)"/><path class="cls-1" d="M8.76,11.59c1.5,0-.37.08.32.1a3.18,3.18,0,0,0,.83-.06c-1.19,0,.16-.13-1-.11a5.33,5.33,0,0,1,1.28-.06c.46.07-.4,0-.51.12a2,2,0,0,0,.6-.06,16.77,16.77,0,0,1,2,0,5,5,0,0,0,.83-.08c.06-.07-.82,0-1-.1h-.37c.45,0-.06.07-.3.08a2.29,2.29,0,0,1-.48,0h.27a8.22,8.22,0,0,1-1.11,0h.14a9.35,9.35,0,0,0-1.39.08l.35-.07a14.28,14.28,0,0,1-2.31,0h.15c-.44,0-.77,0-.57-.07-.43.06-1.64-.05-2.23,0l-1.35.18L2,11.67a1.56,1.56,0,0,0-.32.06h.22c.25.06.38.06,0,.12a5.1,5.1,0,0,1,.89-.09c-.25,0-.31.1.3.11,1.43,0,2.43-.21,3.88-.31H8.6a6,6,0,0,1-1,.08h1Z" transform="translate(0.01 -0.01)"/><path class="cls-1" d="M5.23,11.76" transform="translate(0.01 -0.01)"/><path class="cls-1" d="M7.44,11.66" transform="translate(0.01 -0.01)"/><path class="cls-1" d="M1.44,12H1.38C1.44,12.05,1.44,12,1.44,12Z" transform="translate(0.01 -0.01)"/><path class="cls-1" d="M1.24,11.9" transform="translate(0.01 -0.01)"/><path class="cls-1" d="M14.51,12.05" transform="translate(0.01 -0.01)"/><path class="cls-1" d="M10.44,11.66c-.52,0-.06.07-.8.07H7.76c.07,0-.38,0-.31-.08a7.83,7.83,0,0,0-1.08.07h-1c.14,0-.48.09.34.06H5.6a11.93,11.93,0,0,0,1.21,0c.27,0-.45,0-.19.05a9.65,9.65,0,0,0,1.76-.07,2.48,2.48,0,0,1,.6,0c.66-.11,2.45,0,2.44-.09h-1Z" transform="translate(0.01 -0.01)"/><path class="cls-1" d="M2.2,12" transform="translate(0.01 -0.01)"/><path class="cls-1" d="M1.44,6.88l.09.22v4.31a.2.2,0,0,0,0,.08h0s.14,0,.09.06h.16c-.09,0,0,0-.08.07a.52.52,0,0,1-.26,0c-.07-.08.21,0,.17-.09a.09.09,0,0,0-.09,0H1.44v-.19a1.88,1.88,0,0,1,0-.2h0V10.05c0-1.1-.15.16-.19-1.1,0,.16.12-.34.14-.92a11.51,11.51,0,0,1,0,1.44c.07-.64,0,.87.08.54a9.06,9.06,0,0,1,0-1.25v.13a7.65,7.65,0,0,1,0-1.36v-.2A2.49,2.49,0,0,1,1.44,6.88Zm0,.65v.4a2.57,2.57,0,0,0,.06-.4Z" transform="translate(0.01 -0.01)"/><path class="cls-1" d="M43,3" transform="translate(0.01 -0.01)"/><path class="cls-1" d="M9.44.41" transform="translate(0.01 -0.01)"/><path class="cls-1" d="M14.57.13Z" transform="translate(0.01 -0.01)"/><polygon class="cls-1" points="42.1 0.42 42.08 0.42 42 0.43 42.1 0.42"/><path class="cls-1" d="M24.95.33Z" transform="translate(0.01 -0.01)"/><path class="cls-1" d="M14.51.14" transform="translate(0.01 -0.01)"/><path class="cls-1" d="M7.12.16" transform="translate(0.01 -0.01)"/><path class="cls-1" d="M7.44.4" transform="translate(0.01 -0.01)"/><path class="cls-1" d="M.29,2.25v.31A1,1,0,0,0,.29,2.25Z" transform="translate(0.01 -0.01)"/><path class="cls-1" d="M6.62.35" transform="translate(0.01 -0.01)"/><path class="cls-1" d="M42.72,5" transform="translate(0.01 -0.01)"/><path class="cls-1" d="M42.84,5.71" transform="translate(0.01 -0.01)"/><path class="cls-1" d="M29.44.47h.19C29.81.49,29.8.45,29.44.47Z" transform="translate(0.01 -0.01)"/><path class="cls-1" d="M42.19,3.44v.17A.55.55,0,0,0,42.19,3.44Z" transform="translate(0.01 -0.01)"/><path class="cls-1" d="M42.22,3.66Z" transform="translate(0.01 -0.01)"/><path class="cls-1" d="M27.37,1.17" transform="translate(0.01 -0.01)"/><path class="cls-1" d="M42.83,6.21s.06,1.23.07.24a4.55,4.55,0,0,1,0,.91c0-.19,0,.1.06,0s0-.29,0-.51v.49c0-.32,0,.4.08,0a20.72,20.72,0,0,0-.14-2.29V6.24c0,.53-.06.17-.07-.24A1.12,1.12,0,0,1,42.83,6.21Z" transform="translate(0.01 -0.01)"/><polygon class="cls-1" points="42.36 5.43 42.36 5.46 42.37 5.5 42.36 5.43"/><path class="cls-1" d="M1.44,2.19Z" transform="translate(0.01 -0.01)"/><path class="cls-1" d="M42.62,4.78" transform="translate(0.01 -0.01)"/><path class="cls-1" d="M1.93,1.35" transform="translate(0.01 -0.01)"/><path class="cls-1" d="M2.57.17" transform="translate(0.01 -0.01)"/><path class="cls-1" d="M1.93,1.34" transform="translate(0.01 -0.01)"/><path class="cls-1" d="M13.61,1.14Z" transform="translate(0.01 -0.01)"/><path class="cls-1" d="M11.31,1.05" transform="translate(0.01 -0.01)"/><path class="cls-1" d="M28.92.22" transform="translate(0.01 -0.01)"/><path class="cls-1" d="M1.91,1.35Z" transform="translate(0.01 -0.01)"/><polygon class="cls-1" points="17.14 0.85 17.07 0.86 17.11 0.86 17.14 0.85"/><path class="cls-1" d="M18.33.91h-.08A11.21,11.21,0,0,0,19.56.85c-.15,0-.9,0-.77-.07h-.9c.49,0,0,0-.28.07s.06,0-.2-.06h-.09l-.18.06h.06C18.22.83,17.28.94,18.33.91Z" transform="translate(0.01 -0.01)"/><path class="cls-1" d="M18.25.92" transform="translate(0.01 -0.01)"/><path class="cls-1" d="M22.44,1.05" transform="translate(0.01 -0.01)"/><path class="cls-1" d="M1,10.05a2.1,2.1,0,0,0,0-.61Z" transform="translate(0.01 -0.01)"/><path class="cls-1" d="M33.91.77" transform="translate(0.01 -0.01)"/><path class="cls-1" d="M19,.78Z" transform="translate(0.01 -0.01)"/><path class="cls-1" d="M33.95.87h.7A6.94,6.94,0,0,1,33.95.87Z" transform="translate(0.01 -0.01)"/><path class="cls-1" d="M34.66.88" transform="translate(0.01 -0.01)"/><path class="cls-2" d="M1,10.43v.62A.22.22,0,0,0,1,11v.13l.09.93H1.8a7,7,0,0,0,1.45,0H2.76l1-.1a5.19,5.19,0,0,0-.65.08,13.54,13.54,0,0,0,1.83,0,1.25,1.25,0,0,0,.66.13c-.38-.06.31,0,0-.1h.61A5.41,5.41,0,0,0,7.78,12h2.43a1.25,1.25,0,0,0,.62.12,4.26,4.26,0,0,0,1-.12,4.68,4.68,0,0,0-.89.06c-.31-.06,0-.06-.45-.09h1.8a6.9,6.9,0,0,0,1.77.1h.48a11.82,11.82,0,0,0,1.43,0h-.09a12.53,12.53,0,0,0,1.36,0c.23,0,0,0-.19.08A19.54,19.54,0,0,0,19.39,12h.56c-.33,0-.74.07-.63.1a6.68,6.68,0,0,1,.68,0,3.71,3.71,0,0,1-.46.1c.9.05.2-.11.83,0a.88.88,0,0,0,.48-.08h.51a6.65,6.65,0,0,1,1.1-.06,1.43,1.43,0,0,0-.49,0,3.27,3.27,0,0,1,.75-.05c.1.1,1.85,0,1.52.1,1.27,0,3.06,0,3.9-.08.28,0,.84,0,.5.07,1,0,1.55-.1,2.57-.07H33a.62.62,0,0,0-.25,0h.57c2,0,3.51-.09,5.48-.08-.57,0-.78.06-.78.09h.55a6.56,6.56,0,0,0,1-.06h0c1.09.07,1.71-.12,3-.08l-1.67.14h.4l-.71.06h.54a5.74,5.74,0,0,0,.75,0c-.81.1-2.4.1-3.25.12h-.82a13,13,0,0,1-1.63-.08c-1.29,0,.21.13-1,.11l-.38-.06c-.73,0-1.67.08-2.5.07h.16c.12,0-.08,0-.16-.05H30.72c-.71.06-1.9.1-2.71.13-.22-.07,1.06-.06,1.4-.11h-.74a5,5,0,0,0,.91-.07c-.65,0-.86.05-1.48.07H26.48a3.54,3.54,0,0,0,.53.06h.42c-.25,0,.28,0,.27.05h-5a15.59,15.59,0,0,0-1.78.15c-.25.06-1.7-.07-2.35,0a3,3,0,0,0,.67-.07,5.12,5.12,0,0,1-.92,0c1,0,0,0,.39-.07H17.6c.74,0-.26.08.49.06a19.06,19.06,0,0,1-2.06.05h-.55c-.32,0,.62,0,0-.06a11.73,11.73,0,0,0-2.31.08c-.51,0,1,0,.2-.11a7.59,7.59,0,0,0,1.21-.05c-.44,0-.16-.05-.44-.05h-.38c-.82.06-2.12,0-3.17,0-.89.06-1.5.15-2.56.14.31,0-.88,0-.21-.1a3.86,3.86,0,0,0-1,0h.52a6.93,6.93,0,0,1-1,0H4.64l-.5.06a4.33,4.33,0,0,1-.55-.05,9.11,9.11,0,0,1-1.26.37c.22,0-.49,0-.5-.07H1.15l-.71.07V9.94h0a.46.46,0,0,0,0-.28c0-.37-.08-.61-.12-1.29a4.18,4.18,0,0,0,0,.93v.23a4.7,4.7,0,0,0,0,.82C.23,9.91.25,8.66.2,7.9a20.13,20.13,0,0,0-.07,2.33v.82c0-.46.07-.64.06-.38a10.51,10.51,0,0,0,0,1.14v-.53h0V12.7H1.67c-.09-.08.87,0,1-.07h.39c.63.07-.56.07.4.11a14.8,14.8,0,0,0,1.6-.08,8.32,8.32,0,0,1-1.35.09h-1c.64-.06-.3,0-.6-.06,0,0,.36,0-.13.08H3.06c-1.32,0-.79.16-3,.12h0V11L0,11.15a7.76,7.76,0,0,0,0-1.6v.5A17.51,17.51,0,0,1,.12,7.8a.64.64,0,0,1-.06-.35c0,.1.06-.13.09.22a8.36,8.36,0,0,0,0-.92c0,.63-.06-.26-.08-.37v.3A2.43,2.43,0,0,0,.07,6,5.53,5.53,0,0,1,.2,7.17V6.82a3.81,3.81,0,0,1,0,.59c0-.32.07-.28.1-.21h0v.4c.06.23,0-.36.06-.55v-.4L.27,5.33a9.77,9.77,0,0,1,0-1.28V3.94c0-.5,0-1,.08-.65v.19a.27.27,0,0,1,0,.07h0v-.9c.07.91.09,0,.18.2V1.74A11.75,11.75,0,0,0,.44.38H2.19L2.88.24c-.64,0-.26,0-.31-.07H1.63A11.1,11.1,0,0,0,.44.23H.3v2a1.13,1.13,0,0,0,0-.18,1.14,1.14,0,0,1,0-.15V1.5a1.25,1.25,0,0,0,0,.21v1c0-.07,0,.71-.08.15V1.51A8.72,8.72,0,0,1,.19.05a9.11,9.11,0,0,0,1.53,0,8.43,8.43,0,0,1,1.54,0c-.55,0-.06,0-.26.08a5.2,5.2,0,0,0,1,0c.14,0,.24.06-.26.06-.06.07.66,0,.7.06a32.53,32.53,0,0,1,3.3-.2h3l.9.08c-.2,0-.74.07-.49.11-.44-.08-.9,0-1.37-.09h-1a7.9,7.9,0,0,1-1.1.11,3.46,3.46,0,0,1,.76-.1h.15a12.09,12.09,0,0,1-1.48,0H6.39c.25,0-.84,0-.74.1h2a6.21,6.21,0,0,0-1,.12h-.1c-.19,0,0,.07,0,.16a12.18,12.18,0,0,1,1.6,0,2,2,0,0,0-.72,0h2A2.62,2.62,0,0,0,8.91.6h.58s0-.08.17-.08a13,13,0,0,1,1.82.11h.11c-.16,0,.68-.09,1-.14a3.82,3.82,0,0,0,.77.06c.15-.06,0-.14-.38-.19a1.51,1.51,0,0,0-.67.13H10.54a5.65,5.65,0,0,0,1-.06h-.38c.6-.06.31.06,1,0h.38c-.25,0-1.29,0-1.07-.08a9.6,9.6,0,0,0,1.78,0h0A7.21,7.21,0,0,0,14.53.23h1.53a7.45,7.45,0,0,1-1,0h0A4.26,4.26,0,0,0,13.89.3,11.83,11.83,0,0,0,15.63.22h.49c.25,0,0,.1-.49.11h-.1a6,6,0,0,1-1,0h.29A10.44,10.44,0,0,0,13.3.39h2.84a5,5,0,0,0,.73-.28h2.7c.2,0-.19,0,0,.07h.88a7.49,7.49,0,0,1-1.14,0h.16a12,12,0,0,1-1.35,0h-.27a1.4,1.4,0,0,0-.64.06s.71,0,.46.07h.94a8,8,0,0,1-1,0c-.69,0-.59.17-.26.18-.08,0,1.25,0,.35-.1A12.68,12.68,0,0,0,19.38.31h.33l.91-.07h.55c.23,0,.45-.07.11-.09a3.23,3.23,0,0,0-.57,0L21.2.09h.3c.67,0-.29.12.57.07L22,.14c1,0,2.28.09,3,.06-.19,0-.28.11,0,.14H23.61a4.47,4.47,0,0,1,1-.07c-.23-.12-1.19.07-1.25,0a11.25,11.25,0,0,1-1.93,0s-.29,0-.35.07a14.61,14.61,0,0,0,2,0h-.22a8.93,8.93,0,0,0,1,0h0a1.22,1.22,0,0,1,.7.06h1.12a5.67,5.67,0,0,0,.74,0V.32h-.87a2.28,2.28,0,0,0,.61-.06c-.54.06.38,0,.43.08h.93A6,6,0,0,0,26.44.26C26.8.26,27.5.2,27.68.2h1c-.67,0,.24.16-1.11.12h.18a4.46,4.46,0,0,0-1.1,0c.08,0-.23,0,.29.07a2.79,2.79,0,0,1,.93,0l-.09.08h.66a10.4,10.4,0,0,0,1.26,0c.5,0,1.72,0,1.13-.09a9.26,9.26,0,0,0,1.31,0h-.6A7.75,7.75,0,0,0,32.62.21c.06,0,.18,0,.07.07h2.88c.56,0,.78.1,1.73.06.2,0-.16-.08.47,0,0,0-.6.06.09,0,.5-.06,1.17,0,1.81,0,.34,0,.93,0,.81.06H37.8a1.67,1.67,0,0,0,.53,0c0,.07-1.44,0-.79.12A15.28,15.28,0,0,1,39.23.4a4.35,4.35,0,0,0-1,.08h1A10.37,10.37,0,0,0,41,.37c-.51,0,.12-.12-.27-.15.59,0,1,0,1,.07-1.1.06-.06.07-1.08.14.17,0-.24.1.36.11s-.2-.06.48-.08h.87a4.49,4.49,0,0,0,.65,0,3.63,3.63,0,0,1,0,.64V.3h-.65a1.51,1.51,0,0,1-.59.08h-.28a3.24,3.24,0,0,0,.53,0,.79.79,0,0,1,.29-.06h.77V2.66c0-.49,0,.34-.07.35v.36h0c0,.48.07.45.08.94,0,0-.08-.37-.1-.07a3.51,3.51,0,0,0-.08,1.07,3.11,3.11,0,0,1,0,.4v.34a6.73,6.73,0,0,1,0-1.1h0a7,7,0,0,0,0-.84v1a1.48,1.48,0,0,1-.06-.32V3.28h0V.91l-1,.08h-.47l-1,.06h.35c.12,0,.81,0,.71-.06A4.57,4.57,0,0,0,42,1h.4c-.25,0,0,0,.26-.06a.34.34,0,0,0,0,.1v.52a1.55,1.55,0,0,0,0-.33c0-.33,0,.67-.08.25v1.9a4.94,4.94,0,0,0-.11,1.14V3.66a4,4,0,0,0,0,.77l.09.89V6.63a11.38,11.38,0,0,1,0-1.56c0-.46-.07.29-.09-.15a2.81,2.81,0,0,0,0,.54v.2c-.07-.39,0-1.27-.11-1.86a.56.56,0,0,0,0,.11V2.56a2.37,2.37,0,0,0,0,.46V2c0-.17,0,.14.07.1a2.67,2.67,0,0,1,0-.43,1.15,1.15,0,0,0,0-.33c0,.34-.06,0-.08-.09h-.91a4.24,4.24,0,0,0-.49.13,3.8,3.8,0,0,0-.7,0h.09A8.53,8.53,0,0,0,39,1.4c-.28,0,1.94-.19,0-.16-.74,0-.46.1-.88.13h0a4.84,4.84,0,0,0-.62,0,3.7,3.7,0,0,0,.57,0h-.92c.32-.06-.63,0-.38-.06a9.54,9.54,0,0,0-1.71,0,8.86,8.86,0,0,0-1.47,0h.47c.4,0-.73,0-.11-.07h.15l-.88-.06h-3c-.17.14-2.19.06-2.91.15.19,0,.3-.11.18-.14a8,8,0,0,1,.85,0c.06,0,.51,0,.22.07,1,0-.14-.06.16-.11-1.11,0-1.77.1-2.47.13h-.53c.43,0,.41.09-.15.06H23.88a1.29,1.29,0,0,1-.68-.14,17.5,17.5,0,0,0-1.79.11c-.25,0-1.42,0-.8-.09a5.72,5.72,0,0,1-1.77.12h.31c-1.16,0-2.81.08-3.34,0,.43-.13-1.45-.13-1.65-.26a1.74,1.74,0,0,0-.44,0,1.42,1.42,0,0,0-.42,0c.45,0-.32.13.55.08a9.48,9.48,0,0,1-2,.15h.76a2.61,2.61,0,0,0,.47,0c-1.41,0,.18-.12-1.25-.12h-.77c-.5-.09.83-.06.4-.12.6,0,1.52-.15,1.34-.22C11.89.88,12,1,11,1h-.1a3.27,3.27,0,0,0-.57.07.83.83,0,0,0-.3,0c-.56.07-.94.08-1.46.15,1.38-.06,1.18,0,2.61,0a8.6,8.6,0,0,0-1.29.11v0H8.77a15,15,0,0,0-1.9,0h-1l-.85.09s-.56,0-.29-.07a8.92,8.92,0,0,0-1.29.07c-.66-.06.57,0,.64-.1a22.73,22.73,0,0,0-2.36,0h-.2c-.14,0-.16,0,0-.07H1.35a.7.7,0,0,1,0,.32,2.17,2.17,0,0,1,0-.34h.36a2.12,2.12,0,0,1-.38,0V2.62c0,.66.07.17.11.38a4.77,4.77,0,0,1,0-1v.66a1.9,1.9,0,0,0-.09.87c0-.4,0-.29.11-.4.07.56-.07.63,0,1.26V4.27a3.82,3.82,0,0,0,.06.6c0-.21-.09-.21-.16-.5V4c0-.59-.06-.43-.08-.48a11.42,11.42,0,0,0,.07,1.41V4.76a4.76,4.76,0,0,0,.06.82V5.47a4,4,0,0,0,0,.66c0,.27.18-.3.19.79V6.85l-.54-1V9.47C1,9.77,1,8.56.95,8.64V8.05s0,1.22.08.7c0-1,0-1.5-.06-2.48A13.44,13.44,0,0,0,1,8.19v.54a3.3,3.3,0,0,0,.1,1.16v.16ZM38.5,12.05h-.09A.13.13,0,0,0,38.5,12.05ZM3.17.66H.73A11.83,11.83,0,0,1,2.19.81,5.58,5.58,0,0,1,.93.87h1l1-.12L3.68.66a4.74,4.74,0,0,0-.62,0Zm.58.21h0ZM.94,5.57v.2A.42.42,0,0,0,.94,5.57Zm.15-3A8.49,8.49,0,0,0,1,1.71v.77a.25.25,0,0,1,0,.11c0-.19,0-.31.06-.24-.08.48.06.43,0,1,0,.17,0-.57,0-.73ZM38.91.87h-.22a11.37,11.37,0,0,0-1.76,0,2.86,2.86,0,0,1-.56-.09h.36C38.37.71,37.58.95,38.91.87ZM31.44.76h.09c-1.47.12-2.65.15-3.47.14a11.15,11.15,0,0,0,1.19.1h-1a5.4,5.4,0,0,1,.83,0L30.25.9h.81a2,2,0,0,0-.72,0c-.08,0,.66,0,.2-.08a18.42,18.42,0,0,1,1.85,0l.07.07a2.94,2.94,0,0,1,.84,0c-.66,0,.11.07-.41.08.17,0,0,.07.53.06a8.31,8.31,0,0,0,1,0c.45,0-.3,0,.25.06s.59-.08.62-.14c-.58,0-.65.08-1.13.07l1,0h-.41a3.93,3.93,0,0,0,.49,0h.22a9.52,9.52,0,0,1-1.09,0h.07a2.66,2.66,0,0,0-.64,0,8.64,8.64,0,0,1-1.06,0h.18ZM12.11.66a7.1,7.1,0,0,0,2.42.19h-.09c.84.07,1.62-.09,2.62,0a7.47,7.47,0,0,0-1,.13h.53c-.15.06.38,0,.77,0l-.3.07a6.37,6.37,0,0,0-.82,0A7.87,7.87,0,0,0,14.93,1s1.12,0,.65.11h.92c-.42,0-.1.07-.42.1h.72s-1,0-.46.1a9.6,9.6,0,0,0,1.08,0h0a3.83,3.83,0,0,1,.9,0H18a5.86,5.86,0,0,1-.65.06c-.19,0,.5,0,.21-.06s-1.1,0-.79,0h.54s.41,0,.39-.09h1c.14,0-.1-.1.45-.07a18,18,0,0,0,2.21,0h1.13c-.2,0-.68,0-.59.08h.53a1.75,1.75,0,0,0,.76-.08c.63-.07-.63-.07-.55-.12h1.84c-.16,0-.31,0-.26.06a3.36,3.36,0,0,0,.64,0,7,7,0,0,1,1.24,0h-.2a5,5,0,0,0,.88,0h.48c-.18,0-.1,0,.29-.08h0a20.05,20.05,0,0,0-2.06,0h.11a14.53,14.53,0,0,1-2,0s-.15,0-.14-.06H22.06L21,1.05H20.5a3.31,3.31,0,0,1-.67,0h.87c.07,0,0-.08-.43-.11h0s-.57,0-.36.06c-.83,0-2.17-.09-3.44,0,1-.25-.68-.25.33-.25a11.15,11.15,0,0,0-1.36,0H16c-1.19,0-2,.1-3.16.08h0ZM9.83.72H8.56c.41,0,.68.07.11.1,0,0-.12,0,.08-.06-.38,0-1.22-.06-1,0,.74-.07.17.09.75,0H7.59c.31,0-.07-.09-.53-.11H6c.12,0-.17.07.37.08a6.84,6.84,0,0,1-.85,0,1.84,1.84,0,0,0,.36,0A2,2,0,0,1,5.24.67H4.32L4.7.73h1c.81,0,.5.07,1.42.07A10.31,10.31,0,0,0,8.5.72a3,3,0,0,0,.88,0C9.73.65,10.77.64,10.46.6a5.66,5.66,0,0,1-.89,0h.19c.18.25.16.21.08.15Z" transform="translate(0.01 -0.01)"/><path class="cls-1" d="M42.71,5.28v.47C42.71,5.67,42.76,5.05,42.71,5.28Z" transform="translate(0.01 -0.01)"/><path class="cls-1" d="M42.67,5.75Z" transform="translate(0.01 -0.01)"/><path class="cls-1" d="M42.38,6.24a4.86,4.86,0,0,1,0,.8c-.1.15,0-.64-.13-.82,0,.72.08.94.09,1.52A6,6,0,0,0,42.38,6.24Z" transform="translate(0.01 -0.01)"/><polygon class="cls-1" points="42.25 5.91 42.28 6.3 42.28 6.26 42.26 5.87 42.25 5.91"/><path class="cls-1" d="M39.06.27a1.46,1.46,0,0,0-.42,0Z" transform="translate(0.01 -0.01)"/><path class="cls-1" d="M29.56,12.77Z" transform="translate(0.01 -0.01)"/><path class="cls-1" d="M29,.48c.81,0,1.18-.09,2-.1-1.09-.07-1.44.1-2.36,0Z" transform="translate(0.01 -0.01)"/><path class="cls-1" d="M29.27.22c.14.06-.63.07-.51.12a3.13,3.13,0,0,1,.75,0Z" transform="translate(0.01 -0.01)"/><polygon class="cls-1" points="32.97 1.22 32.72 1.25 32.92 1.24 32.97 1.22"/><polygon class="cls-1" points="25.56 0.27 25.65 0.24 25.24 0.23 25.56 0.27"/><path class="cls-1" d="M25.74.24" transform="translate(0.01 -0.01)"/><polygon class="cls-1" points="32.65 1.35 33.02 1.36 33.2 1.33 32.65 1.35"/><path class="cls-1" d="M29.44,1.05h.33C29.67,1.05,29.22,1,29.44,1.05Z" transform="translate(0.01 -0.01)"/><polygon class="cls-1" points="23.07 0.23 22.67 0.27 22.71 0.27 23.11 0.24 23.07 0.23"/><path class="cls-1" d="M26.83,1.2h-.19C27.11,1.2,26.89,1.22,26.83,1.2Z" transform="translate(0.01 -0.01)"/><path class="cls-1" d="M22,.88" transform="translate(0.01 -0.01)"/><path class="cls-1" d="M22,.88h.47A2.44,2.44,0,0,0,22,.88Z" transform="translate(0.01 -0.01)"/><path class="cls-1" d="M20,.89h.36C20.11.87,20,.87,20,.89Z" transform="translate(0.01 -0.01)"/><path class="cls-1" d="M12.6.05c.58,0,.73,0,.7.06a4.68,4.68,0,0,0,.76-.06Z" transform="translate(0.01 -0.01)"/><path class="cls-1" d="M14.11.05" transform="translate(0.01 -0.01)"/><polygon class="cls-1" points="22.35 1.28 21.99 1.33 22.12 1.32 22.35 1.28"/><path class="cls-1" d="M11.74.05Z" transform="translate(0.01 -0.01)"/><path class="cls-1" d="M14,.8h.58A2,2,0,0,0,14,.8Z" transform="translate(0.01 -0.01)"/><path class="cls-1" d="M10.06.23c.11,0,.27,0,.2.06C10.44.27,10.64.21,10.06.23Z" transform="translate(0.01 -0.01)"/><polygon class="cls-1" points="12.93 0.79 13.01 0.8 13.41 0.77 12.93 0.79"/><path class="cls-1" d="M14.35,1.33c.45,0-.71-.11.06-.14-1,0,.08.06-.66,0C14.18,1.26,14.39,1.31,14.35,1.33Z" transform="translate(0.01 -0.01)"/><path class="cls-1" d="M13.75,1.24" transform="translate(0.01 -0.01)"/><path class="cls-1" d="M7.44,1" transform="translate(0.01 -0.01)"/><path class="cls-1" d="M11.44,1.28l.67-.07a12.3,12.3,0,0,0-1.51.11,6.74,6.74,0,0,0,1,0Z" transform="translate(0.01 -0.01)"/><path class="cls-1" d="M3.68.05H3.61C3.71.05,3.52.12,3.68.05Z" transform="translate(0.01 -0.01)"/><path class="cls-1" d="M3.54.05" transform="translate(0.01 -0.01)"/><path class="cls-1" d="M8.7.94h.59A2.44,2.44,0,0,0,8.7.94Z" transform="translate(0.01 -0.01)"/><polygon class="cls-1" points="1.58 0.18 2.12 0.17 1.51 0.17 1.58 0.18"/><polygon class="cls-1" points="0.14 2.31 0.13 2.4 0.15 2.79 0.17 2.71 0.14 2.31"/><path class="cls-1" d="M2.32,1.36c.33,0,.58,0,.49-.06H2.73Z" transform="translate(0.01 -0.01)"/><path class="cls-1" d="M7.65,12.83a3.62,3.62,0,0,1-.87,0H6.44c-.73-.05.55-.11.91-.14H5.61a4,4,0,0,1,.5,0,6.31,6.31,0,0,1-1.23,0c.33,0,.14,0-.1.07h1c-.28-.1,1,0,1.32-.05h.31a7.56,7.56,0,0,0,.79,0h7.22c.5-.06-.54,0-.4-.07a5,5,0,0,1,.74,0c.07,0-.2-.06-.17-.09-.82,0-.94.11-1.74.09,0,0,.28-.07-.24-.06h.13a5.59,5.59,0,0,0-1.18,0v.07h-1.5c-1.17.06-.66,0-2,0l.6-.06h-.9s-.05,0,.25-.06l-1.59.09C7.13,12.8,7.59,12.8,7.65,12.83Z" transform="translate(0.01 -0.01)"/><path class="cls-1" d="M5.63,12.75" transform="translate(0.01 -0.01)"/><path class="cls-1" d="M16.83,12.91" transform="translate(0.01 -0.01)"/><path class="cls-1" d="M3.35,12.86c.28,0-.21,0-.26.06h1s.09,0,.07-.06Z" transform="translate(0.01 -0.01)"/><path class="cls-1" d="M4.37,13h0Z" transform="translate(0.01 -0.01)"/><polygon class="cls-1" points="4.27 11.87 4.44 11.87 4.71 11.85 4.27 11.87"/><path class="cls-1" d="M7,12a4.68,4.68,0,0,0-.74,0C6.72,12,6.52,12,7,12Z" transform="translate(0.01 -0.01)"/><polygon class="cls-1" points="6.44 11.63 6.88 11.61 6.84 11.6 6.44 11.63"/><path class="cls-1" d="M20.2,12.66" transform="translate(0.01 -0.01)"/><path class="cls-1" d="M16.44,12.75c1,.06-.69,0-.36.13h1.27c-.14,0-.25,0-.22-.07a5.72,5.72,0,0,1,1,.09h4.62c.64,0-.35-.07.12-.12a13.22,13.22,0,0,0-1.9,0h-.08l-.43.06h.41a14.84,14.84,0,0,1-2.07,0,10.33,10.33,0,0,1,1.49-.05s-.25-.05,0-.06C18.91,12.72,17.75,12.66,16.44,12.75Z" transform="translate(0.01 -0.01)"/><path class="cls-1" d="M29.35,12.72" transform="translate(0.01 -0.01)"/><path class="cls-1" d="M28.92,12.66l-.63.07h1l.07-.05a3.14,3.14,0,0,1-.56,0Z" transform="translate(0.01 -0.01)"/><path class="cls-1" d="M27.56,12.82c.51,0,.48-.08.2-.11.46,0,.25.06.57,0a3.23,3.23,0,0,0-.72,0Z" transform="translate(0.01 -0.01)"/><polygon class="cls-1" points="23.83 12.78 23.98 12.76 23.63 12.74 23.83 12.78"/><path class="cls-1" d="M24,12.77Z" transform="translate(0.01 -0.01)"/><path class="cls-1" d="M25.23,12.79" transform="translate(0.01 -0.01)"/><path class="cls-1" d="M24.83,12.77Z" transform="translate(0.01 -0.01)"/><path class="cls-1" d="M24.32,12.77a1.64,1.64,0,0,0,.63.07l-.1-.06Z" transform="translate(0.01 -0.01)"/><polygon class="cls-1" points="9.65 11.69 10.05 11.66 10.01 11.65 9.61 11.68 9.65 11.69"/><path class="cls-1" d="M11.94,11.73Z" transform="translate(0.01 -0.01)"/><path class="cls-1" d="M13.65,11.45c.47,0-.65.05.22.07a2.14,2.14,0,0,1-.74.07s.4,0,.15-.06-.37,0-.28.07a3.78,3.78,0,0,0-.82.11h2.41c.39-.07.15-.16.15-.25A4.67,4.67,0,0,0,13.65,11.45Z" transform="translate(0.01 -0.01)"/><path class="cls-1" d="M12.91,11.36h-.42A1.72,1.72,0,0,0,12.91,11.36Z" transform="translate(0.01 -0.01)"/><path class="cls-1" d="M17.89,12.05s.43,0,.35-.05h-.59A.7.7,0,0,1,17.89,12.05Z" transform="translate(0.01 -0.01)"/><path class="cls-1" d="M17.39,12.05" transform="translate(0.01 -0.01)"/><path class="cls-1" d="M17.92,12.05" transform="translate(0.01 -0.01)"/><path class="cls-1" d="M26.67,12.81a1.35,1.35,0,0,0,.39,0Z" transform="translate(0.01 -0.01)"/><path class="cls-1" d="M36.65,12.66Z" transform="translate(0.01 -0.01)"/><path class="cls-1" d="M40.25,12.05" transform="translate(0.01 -0.01)"/><path class="cls-1" d="M40.3,12h1.16A7.37,7.37,0,0,0,40.3,12Z" transform="translate(0.01 -0.01)"/><text class="cls-3" transform="translate(2.12 7.72)">C<tspan class="cls-4" x="2.82" y="0">r</tspan><tspan x="4.85" y="0">e</tspan><tspan class="cls-5" x="7.4" y="0">a</tspan><tspan class="cls-6" x="9.67" y="0">t</tspan><tspan x="11.66" y="0">e an </tspan><tspan class="cls-7" x="23.1" y="0">a</tspan><tspan class="cls-8" x="25.55" y="0">c</tspan><tspan class="cls-9" x="27.74" y="0">c</tspan><tspan class="cls-10" x="29.98" y="0">o</tspan><tspan class="cls-11" x="32.49" y="0">u</tspan><tspan class="cls-12" x="35.1" y="0">n</tspan><tspan x="37.4" y="0">t</tspan></text></svg>