<svg id="Layer_1" data-name="Layer 1" xmlns="http://www.w3.org/2000/svg" viewBox="0 0 167.18 75.61"><defs><style>.cls-1,.cls-2{fill:#e2ac26;}.cls-2{font-size:8.84px;font-family:Chalkboard-Bold, Chalkboard;font-weight:700;}.cls-3{letter-spacing:0.02em;}.cls-4{letter-spacing:0.02em;}.cls-5{letter-spacing:-0.04em;}.cls-6{letter-spacing:0.02em;}.cls-7{letter-spacing:0.03em;}.cls-8{letter-spacing:0.03em;}.cls-9{font-size:15.16px;}.cls-10{letter-spacing:0em;}.cls-11{letter-spacing:-0.04em;}.cls-12{letter-spacing:0.02em;}.cls-13{letter-spacing:-0.02em;}</style></defs><title>app-store</title><path class="cls-1" d="M40,30.12a22.07,22.07,0,0,0,4.39-1.41S50,26.33,54,27.48c0,0,6.9.72,9.93,6,0,0-8.7,5-6.73,12.64,0,0-.52,6.29,7.86,12.32,0,0,.08,6.08-7.79,13.79a9.38,9.38,0,0,1-10,1.91s-6.92-3-11.06-.72c0,0-8,4.61-13-2,0,0-7.6-8-10.28-22,0,0-1.35-12.84,7.23-19.21,0,0,6.43-4.62,12.65-2.25C32.86,28.07,39.24,30.29,40,30.12Z" transform="translate(-12.91 -11.54)"/><path class="cls-1" d="M39,26.32a13.63,13.63,0,0,1,3.74-10s3.87-4.77,9.33-4.77c0,0,.72,4.41-3.09,9.65C49,21.19,44.89,26.86,39,26.32Z" transform="translate(-12.91 -11.54)"/><text class="cls-2" transform="translate(63.53 28.99) scale(1.09 1)">D<tspan class="cls-3" x="5.82" y="0">o</tspan><tspan class="cls-4" x="10.54" y="0">w</tspan><tspan x="17.32" y="0">n</tspan><tspan class="cls-5" x="22.03" y="0">l</tspan><tspan class="cls-6" x="24.54" y="0">o</tspan><tspan class="cls-7" x="29.18" y="0">a</tspan><tspan x="34.41" y="0">d </tspan><tspan class="cls-8" x="43.38" y="0">o</tspan><tspan x="48.11" y="0">n the </tspan><tspan class="cls-9"><tspan class="cls-10" x="0" y="18.19">A</tspan><tspan x="10.14" y="18.19">pp S</tspan><tspan class="cls-11" x="42.35" y="18.19">t</tspan><tspan class="cls-12" x="48.95" y="18.19">o</tspan><tspan class="cls-13" x="56.91" y="18.19">r</tspan><tspan x="63.54" y="18.19">e</tspan></tspan></text></svg>