<?xml version="1.0" encoding="utf-8"?>
<!-- Generator: Adobe Illustrator 20.1.0, SVG Export Plug-In . SVG Version: 6.00 Build 0)  -->
<svg version="1.1" id="Layer_1" xmlns="http://www.w3.org/2000/svg" xmlns:xlink="http://www.w3.org/1999/xlink" x="0px" y="0px"
	 viewBox="0 0 43.1 13" style="enable-background:new 0 0 43.1 13;" xml:space="preserve">
<style type="text/css">
	.st0{fill:#B88C2D;}
	.st1{fill:#C9B13D;}
	.st2{font-family:'Chalkboard-Bold';}
	.st3{font-size:6.87px;}
</style>
<title>button</title>
<path class="st0" d="M42.8,9.6v0.4c0,0.5,0,0.5,0.1,0.6v0.6c0.1,0.1,0,0.9,0,1v-1l0,0c0-0.3,0-0.5,0-0.8v0.2c0-1.2-0.1-0.3-0.1-1.3
	C42.8,9.3,42.8,9.4,42.8,9.6z"/>
<path class="st0" d="M43,8.6l-0.1-0.4V7.5c0,0,0-0.5-0.1-0.2v0.3c-0.1-0.1,0-0.9-0.1-0.7c0,0.3,0,0.7,0,1V9c0,0.1,0,0.2,0,0.4V9.2
	h0.1c0-0.2,0-0.3,0-0.5l0.1,0.8C43,9.1,43,8.6,43.1,8.2C43,8.5,43.1,7.8,43,8.6z"/>
<path class="st0" d="M42.8,9.3"/>
<path class="st0" d="M1.1,11.2V9.5c0,0.1,0,0.6-0.1,0.2c0,0.2,0,0.5,0,0.8v-0.1c0,0.4,0,0.8-0.1,0.5l0,0l0.1,0.6
	c0,0.1,0,0.3,0.1,0.4C1.2,11.5,1.1,11.7,1.1,11.2z"/>
<path class="st0" d="M39.8,12.1L39.8,12.1z"/>
<path class="st0" d="M1.3,11.8l0.2-0.1L1.3,11.8z"/>
<path class="st0" d="M0.4,9.7L0.4,9.7v0.2l0,0V9.7z"/>
<path class="st0" d="M9.9,11.7"/>
<path class="st0" d="M0.1,4.5v0.9v0.2c0.1,0.3,0.1,0.6,0.2,0.9c0-0.3,0-0.6,0-0.9V5.3L0.2,4.7L0.1,4.5z"/>
<path class="st0" d="M27.7,12.4"/>
<path class="st0" d="M27.7,12.4"/>
<path class="st0" d="M1.2,11.9L1.2,11.9z"/>
<path class="st0" d="M1.1,11.6L1.1,11.6z"/>
<path class="st0" d="M8.8,11.6c1.5,0-0.4,0.1,0.3,0.1c0.3,0,0.6,0,0.8-0.1c-1.2,0,0.2-0.1-1-0.1c0.4-0.1,0.9-0.1,1.3-0.1
	c0.5,0.1-0.4,0-0.5,0.1c0.2,0,0.4,0,0.6-0.1c0.7,0,1.3,0,2,0c0.3,0,0.6,0,0.8-0.1c0.1-0.1-0.8,0-1-0.1h-0.4c0.4,0-0.1,0.1-0.3,0.1
	c-0.2,0-0.3,0-0.5,0h0.3c-0.4,0-0.7,0-1.1,0h0.1c-0.5,0-0.9,0-1.4,0.1l0.4-0.1c-0.8,0.1-1.5,0.1-2.3,0h0.1c-0.4,0-0.8,0-0.6-0.1
	c-0.4,0.1-1.6-0.1-2.2,0l-1.3,0.2L2,11.7c-0.1,0-0.2,0-0.3,0.1h0.2c0.2,0.1,0.4,0.1,0,0.1c0.3-0.1,0.6-0.1,0.9-0.1
	c-0.2,0-0.3,0.1,0.3,0.1c1.4,0,2.4-0.2,3.9-0.3h1.7c-0.3,0.1-0.7,0.1-1,0.1h1L8.8,11.6z"/>
<path class="st0" d="M5.2,11.8"/>
<path class="st0" d="M7.4,11.7"/>
<path class="st0" d="M1.4,12L1.4,12C1.4,12.1,1.4,12,1.4,12z"/>
<path class="st0" d="M1.2,11.9"/>
<path class="st0" d="M14.5,12.1"/>
<path class="st0" d="M10.4,11.7c-0.5,0-0.1,0.1-0.8,0.1H7.8c0.1,0-0.4,0-0.3-0.1c-0.4,0-0.7,0-1.1,0.1h-1c0.1,0-0.5,0.1,0.3,0.1H5.6
	c0.4,0,0.8,0,1.2,0c0.3,0-0.4,0-0.2,0.1c0.6,0,1.2,0,1.8-0.1c0.2,0,0.4,0,0.6,0c0.7-0.1,2.4,0,2.4-0.1L10.4,11.7L10.4,11.7z"/>
<path class="st0" d="M2.2,12"/>
<path class="st0" d="M1.4,6.9l0.1,0.2v4.3c0,0,0,0.1,0,0.1l0,0c0,0,0.1,0,0.1,0.1h0.2c-0.1,0,0,0-0.1,0.1c-0.1,0-0.2,0-0.3,0
	c-0.1-0.1,0.2,0,0.2-0.1c0,0-0.1,0-0.1,0H1.4v-0.2c0-0.1,0-0.1,0-0.2l0,0v-1.1c0-1.1-0.1,0.2-0.2-1.1c0,0.2,0.1-0.3,0.1-0.9
	c0,0.5,0,1,0,1.4c0.1-0.6,0,0.9,0.1,0.5c0-0.4,0-0.8,0-1.2v0.1c0-0.5,0-0.9,0-1.4V7.3C1.4,7.2,1.4,7,1.4,6.9z M1.4,7.5v0.4
	C1.5,7.8,1.5,7.7,1.4,7.5L1.4,7.5z"/>
<path class="st0" d="M43,3"/>
<path class="st0" d="M9.4,0.4"/>
<path class="st0" d="M14.6,0.1L14.6,0.1z"/>
<polygon class="st0" points="42.1,0.4 42.1,0.4 42,0.4 "/>
<path class="st0" d="M24.9,0.3L24.9,0.3z"/>
<path class="st0" d="M14.5,0.1"/>
<path class="st0" d="M7.1,0.2"/>
<path class="st0" d="M7.4,0.4"/>
<path class="st0" d="M0.3,2.2v0.3C0.3,2.5,0.3,2.4,0.3,2.2z"/>
<path class="st0" d="M6.6,0.4"/>
<path class="st0" d="M42.7,5"/>
<path class="st0" d="M42.8,5.7"/>
<path class="st0" d="M29.4,0.5h0.2C29.8,0.5,29.8,0.5,29.4,0.5z"/>
<path class="st0" d="M42.2,3.4v0.2C42.2,3.6,42.2,3.5,42.2,3.4z"/>
<path class="st0" d="M42.2,3.7L42.2,3.7z"/>
<path class="st0" d="M27.4,1.2"/>
<path class="st0" d="M42.8,6.2c0,0,0.1,1.2,0.1,0.2c0,0.3,0,0.6,0,0.9c0-0.2,0,0.1,0.1,0s0-0.3,0-0.5v0.5c0-0.3,0,0.4,0.1,0
	c0-0.8-0.1-1.5-0.1-2.3v1.6V6.4L42.8,6.2c0.1,0.6,0,0.2,0-0.2C42.8,6.1,42.8,6.1,42.8,6.2z"/>
<polygon class="st0" points="42.3,5.4 42.3,5.5 42.4,5.5 "/>
<path class="st0" d="M1.4,2.2L1.4,2.2z"/>
<path class="st0" d="M42.6,4.8"/>
<path class="st0" d="M1.9,1.3"/>
<path class="st0" d="M2.6,0.2"/>
<path class="st0" d="M1.9,1.3"/>
<path class="st0" d="M13.6,1.1L13.6,1.1z"/>
<path class="st0" d="M11.3,1"/>
<path class="st0" d="M28.9,0.2"/>
<path class="st0" d="M1.9,1.3L1.9,1.3z"/>
<polygon class="st0" points="17.1,0.9 17.1,0.9 17.1,0.9 "/>
<path class="st0" d="M18.3,0.9L18.3,0.9c0.4,0,0.8,0,1.2-0.1c-0.1,0-0.9,0-0.8-0.1h-0.9c0.5,0,0,0-0.3,0.1s0.1,0-0.2-0.1h-0.1
	l-0.2,0.1h0.1C18.2,0.8,17.3,0.9,18.3,0.9z"/>
<path class="st0" d="M18.2,0.9"/>
<path class="st0" d="M22.4,1"/>
<path class="st0" d="M1,10.1c0-0.2,0-0.4,0-0.6V10.1z"/>
<path class="st0" d="M33.9,0.8"/>
<path class="st0" d="M19,0.8L19,0.8z"/>
<path class="st0" d="M34,0.9h0.7C34.4,0.9,34.2,0.9,34,0.9z"/>
<path class="st0" d="M34.7,0.9"/>
<path class="st1" d="M1,10.4v0.6c0,0,0,0,0-0.1v0.1l0.1,0.9h0.7c0.5,0.1,1,0.1,1.5,0H2.8l1-0.1c-0.2,0-0.4,0-0.6,0.1
	c0.6,0,1.2,0,1.8,0c0.2,0.1,0.4,0.1,0.7,0.1c-0.4-0.1,0.3,0,0-0.1h0.6c0.5,0,1.1,0,1.6-0.1h2.4c0.2,0.1,0.4,0.1,0.6,0.1
	c0.3,0,0.7,0,1-0.1c-0.3,0-0.6,0-0.9,0.1c-0.3-0.1,0-0.1-0.4-0.1h1.8c0.6,0.1,1.2,0.1,1.8,0.1h0.5c0.5,0,1,0,1.4,0h-0.1
	c0.5,0,0.9,0,1.4,0c0.2,0,0,0-0.2,0.1c0.8,0,1.6,0,2.3-0.1h0.6c-0.3,0-0.7,0.1-0.6,0.1c0.2,0,0.5,0,0.7,0c-0.2,0-0.3,0.1-0.5,0.1
	c0.9,0.1,0.2-0.1,0.8,0c0.2,0,0.3,0,0.5-0.1h0.5c0.4-0.1,0.7-0.1,1.1-0.1c-0.2,0-0.3,0-0.5,0c0.2,0,0.5-0.1,0.8-0.1
	c0.1,0.1,1.9,0,1.5,0.1c1.3,0,3.1,0,3.9-0.1c0.3,0,0.8,0,0.5,0.1c1,0,1.5-0.1,2.6-0.1H33c-0.1,0-0.2,0-0.2,0h0.6
	c2,0,3.5-0.1,5.5-0.1c-0.6,0-0.8,0.1-0.8,0.1h0.5c0.3,0,0.7,0,1-0.1l0,0c1.1,0.1,1.7-0.1,3-0.1l-1.7,0.1h0.4l-0.7,0.1h0.5
	c0.2,0,0.5,0,0.8,0c-0.8,0.1-2.4,0.1-3.2,0.1h-0.8c-0.5,0-1.1,0-1.6-0.1c-1.3,0,0.2,0.1-1,0.1l-0.4-0.1c-0.7,0-1.7,0.1-2.5,0.1h0.2
	c0.1,0-0.1,0-0.2-0.1h-1.6c-0.7,0.1-1.9,0.1-2.7,0.1c-0.2-0.1,1.1-0.1,1.4-0.1h-0.7c0.3,0,0.6,0,0.9-0.1c-0.6,0-0.9,0.1-1.5,0.1
	h-1.6c0.2,0,0.4,0.1,0.5,0.1h0.4c-0.2,0,0.3,0,0.3,0.1h-5c-0.6,0-1.2,0.1-1.8,0.1c-0.2,0.1-1.7-0.1-2.4,0c0.2,0,0.5,0,0.7-0.1
	c-0.3,0-0.6,0-0.9,0c1,0,0,0,0.4-0.1h-1.1c0.7,0-0.3,0.1,0.5,0.1c-0.7,0.1-1.4,0.1-2.1,0.1h-0.5c-0.3,0,0.6,0,0-0.1
	c-0.8,0-1.5,0-2.3,0.1c-0.5,0,1,0,0.2-0.1c0.4,0,0.8,0,1.2-0.1c-0.4,0-0.2-0.1-0.4-0.1h-0.4c-0.8,0.1-2.1,0-3.2,0
	c-0.9,0.1-1.5,0.1-2.6,0.1c0.3,0-0.9,0-0.2-0.1c-0.3,0-0.7,0-1,0h0.5c-0.3,0-0.7,0-1,0H4.6l-0.5,0.1c-0.2,0-0.4,0-0.5-0.1
	c-0.4,0.2-0.8,0.3-1.3,0.4c0.2,0-0.5,0-0.5-0.1H1.1l-0.7,0.1V9.9l0,0c0-0.1,0-0.2,0-0.3c0-0.4-0.1-0.6-0.1-1.3c0,0.3,0,0.6,0,0.9
	v0.2c0,0.3,0,0.5,0,0.8C0.2,9.9,0.2,8.7,0.2,7.9c-0.1,0.8-0.1,1.6-0.1,2.3v0.1V9.9v1.2c0-0.5,0.1-0.6,0.1-0.4c0,0.4,0,0.8,0,1.1
	v-0.5l0,0v1.4h1.5c-0.1-0.1,0.9,0,1-0.1h0.4c0.6,0.1-0.6,0.1,0.4,0.1c0.5,0,1.1,0,1.6-0.1c-0.4,0.1-0.9,0.1-1.3,0.1h-1
	c0.6-0.1-0.3,0-0.6-0.1c0,0,0.4,0-0.1,0.1h1.1c-1.3,0-0.8,0.2-3,0.1l0,0V11L0,11.2C0,10.6,0,10.1,0,9.6v0.5c0-0.8,0-1.5,0.1-2.2
	C0.1,7.7,0,7.6,0.1,7.5c0,0.1,0.1-0.1,0.1,0.2c0-0.3,0-0.6,0-0.9c0,0.6-0.1-0.3-0.1-0.4c0-0.3,0,0.1,0,0.3c0-0.2,0-0.5,0-0.7
	c0.1,0.4,0.1,0.8,0.1,1.2V6.8c0,0.2,0,0.4,0,0.6c0-0.3,0.1-0.3,0.1-0.2l0,0v0.4c0.1,0.2,0-0.4,0.1-0.6V6.7L0.3,5.3
	c0-0.4,0-0.9,0.1-1.3V3.9c0-0.5,0-1,0.1-0.6v0.2c0,0,0,0,0,0.1l0,0V2.6c0.1,0.9,0.1,0,0.2,0.2V1.9c0,0.6,0,0,0-0.2
	c0-0.5-0.1-0.9-0.1-1.4h1.8l0.7-0.1c-0.6,0-0.3,0-0.3-0.1H1.6c-0.4,0-0.8,0-1.2,0.1H0.3v2c0-0.1,0-0.1,0-0.2c0,0,0-0.1,0-0.1V1.5
	c0,0.1,0,0.1,0,0.2v0.8v0.2c0-0.1,0,0.7-0.1,0.2V1.5c-0.1-0.5-0.1-1,0-1.5c0.5,0,1,0,1.5,0c0.5,0,1,0,1.5,0c-0.5,0-0.1,0-0.3,0.1
	c0.3,0,0.7,0,1,0c0.1,0,0.2,0.1-0.3,0.1c-0.1,0.1,0.7,0,0.7,0.1c1.1-0.1,2.2-0.2,3.3-0.2h3l0.9,0.1c-0.2,0-0.7,0.1-0.5,0.1
	c-0.4-0.1-0.9,0-1.4-0.1h-1C8.4,0.2,8,0.2,7.7,0.3c0.2-0.1,0.5-0.1,0.8-0.1c-0.4,0,0.5,0,0.1,0c-0.5,0.1-0.8,0-1.5,0H6.4
	c0.2,0-0.8,0-0.7,0.1h2c-0.3,0-0.7,0.1-1,0.1H6.6c-0.2,0,0,0.1,0,0.2c0.6-0.1,0.9,0,1.6,0c0.1,0-0.4-0.1-0.7,0h2
	c-0.2,0-0.3,0-0.5,0.1h0.6c0,0,0-0.1,0.2-0.1c0.6,0,1.2,0,1.8,0.1h0.1c-0.2,0,0.7-0.1,1-0.1c0.3,0,0.5,0.1,0.8,0.1
	c0.1-0.1,0-0.1-0.4-0.2c-0.2,0-0.5,0-0.7,0.1h-1h-0.8c0.3,0,0.7,0,1-0.1h-0.4c0.6-0.1,0.3,0.1,1,0c-0.3,0,0.1,0,0.4,0
	c-0.2,0-1.3,0-1.1-0.1c0.6,0.1,1.2,0.1,1.8,0l0,0c0.4,0,0.9,0,1.3-0.1h1.5c-0.3,0-0.7,0-1,0l0,0c-0.4,0-0.8,0-1.2,0.1
	c0.6,0,1.2,0,1.7-0.1h0.5c0.2,0,0,0.1-0.5,0.1h-0.1c-0.3,0-0.7,0-1,0h0.3c-0.5,0-1,0-1.5,0.1h2.8c0.3-0.1,0.5-0.2,0.7-0.3h2.7
	c0.2,0-0.2,0,0,0.1h0.9c-0.4,0-0.8,0-1.1,0h0.2c-0.4,0-0.9,0-1.4,0c-0.2,0,0.4,0-0.3,0c-0.2,0-0.4,0-0.6,0.1c0,0,0.7,0,0.5,0.1h0.9
	c-0.3,0-0.7,0-1,0c-0.7,0-0.6,0.2-0.3,0.2c-0.1,0,1.2,0,0.4-0.1c0.4,0,1.1,0,1.7-0.1H20c-0.1,0-0.3,0-0.3,0l0.9-0.1
	c-0.5,0,0.3,0,0.5,0s0.5-0.1,0.1-0.1c-0.2,0-0.4,0-0.6,0l0.5-0.1l0,0h0.3c0.7,0-0.3,0.1,0.6,0.1l-0.1,0c1,0,2.3,0.1,3,0.1
	c-0.2,0-0.3,0.1,0,0.1h-1.4c0.3-0.1,0.7-0.1,1-0.1c-0.2-0.1-1.2,0.1-1.2,0c-0.6,0.1-1.3,0.1-1.9,0c0,0-0.3,0-0.4,0.1
	c0.7,0,1.3,0,2,0h-0.2c0.3,0,0.7,0,1,0l0,0c0.2,0,0.5,0,0.7,0.1h0.5h0.6v0c0.2,0,0.5,0,0.7,0V0.3h-0.9c0.4,0,0.1,0,0.6-0.1
	c-0.5,0.1,0.4,0,0.4,0.1h0.9c-0.4-0.1-0.7-0.1-1.1-0.1c0.4,0,1.1-0.1,1.2-0.1h1c-0.7,0,0.2,0.2-1.1,0.1h0.2c-0.4,0-0.7,0-1.1,0
	c0.1,0-0.2,0,0.3,0.1c0.3-0.1,0.6-0.1,0.9,0l-0.1,0.1h0.7c0.4,0,0.8,0,1.3,0c0.5,0,1.7,0,1.1-0.1c0.4,0,0.9,0,1.3,0h-0.6
	c0.4,0,0.7-0.1,1.1-0.2c0.1,0,0.2,0,0.1,0.1h2.9c0.6,0,0.8,0.1,1.7,0.1c0.2,0-0.2-0.1,0.5,0c0,0-0.6,0.1,0.1,0c0.5-0.1,1.2,0,1.8,0
	c0.3,0,0.9,0,0.8,0.1h-1.4c0.1,0-0.4,0,0,0h-1.3c0.2,0,0.4,0,0.5,0c0,0.1-1.4,0-0.8,0.1c0.6-0.1,1.1-0.1,1.7-0.1c-0.3,0-0.7,0-1,0.1
	h1c0.6,0,1.2,0,1.8-0.1c-0.5,0,0.1-0.1-0.3-0.2c0.6,0,1,0,1,0.1c-1.1,0.1-0.1,0.1-1.1,0.1c0.2,0-0.2,0.1,0.4,0.1
	c0.6,0-0.2-0.1,0.5-0.1h0.9c0.2,0,0.4,0,0.7,0c0,0.2,0,0.4,0,0.6V0.3h-0.7c-0.2,0.1-0.4,0.1-0.6,0.1h-0.3c0.2,0,0.4,0,0.5,0
	c0.1,0,0.2-0.1,0.3-0.1h0.8v1.5V3V2.7c0-0.5,0,0.3-0.1,0.3v0.4l0,0c0,0.5,0.1,0.5,0.1,0.9c0,0-0.1-0.4-0.1-0.1
	c-0.1,0.4-0.1,0.7-0.1,1.1c0,0.1,0,0.3,0,0.4v0.3c0-0.4,0-0.7,0-1.1l0,0c0-0.3,0-0.6,0-0.8v1c0-0.1-0.1-0.2-0.1-0.3v0.1
	c0-0.6,0-0.9,0-1.6l0,0c0-0.6,0-1.2,0-1.7V0.9l-1,0.1h-0.5l-1,0.1h0.3c0.1,0,0.8,0,0.7-0.1c0.2,0,0.4,0,0.5,0h0.4
	c-0.2,0,0,0,0.3-0.1c0,0,0,0.1,0,0.1v0.5c0-0.1,0-0.2,0-0.3c0-0.3,0,0.7-0.1,0.2v1.9c-0.1,0.4-0.1,0.8-0.1,1.1V3.7
	c0,0.3,0,0.5,0,0.8l0.1,0.9v1.3c0-0.5,0-1,0-1.6c0-0.5-0.1,0.3-0.1-0.2c0,0.2,0,0.4,0,0.5v0.2c-0.1-0.4,0-1.3-0.1-1.9
	c0,0,0,0.1,0,0.1V2.6c0,0.2,0,0.3,0,0.5V2c0-0.2,0,0.1,0.1,0.1c0-0.1,0-0.3,0-0.4c0-0.1,0-0.2,0-0.3c0,0.3-0.1,0-0.1-0.1h-0.9
	c-0.2,0-0.3,0.1-0.5,0.1c-0.2,0-0.5,0-0.7,0h0.1c-0.4,0-0.9,0-1.3,0c-0.3,0,1.9-0.2,0-0.2c-0.7,0-0.5,0.1-0.9,0.1l0,0
	c-0.2,0-0.4,0-0.6,0c0.2,0,0.4,0,0.6,0h-0.9c0.3-0.1-0.6,0-0.4-0.1c-0.6,0-1.1,0-1.7,0c-0.5,0-1,0-1.5,0h0.5c0.4,0-0.7,0-0.1-0.1
	h0.2l-0.9-0.1h-3C30,1.3,28,1.3,27.3,1.4c0.2,0,0.3-0.1,0.2-0.1c0.3,0,0.6,0,0.9,0c0.1,0,0.5,0,0.2,0.1c1,0-0.1-0.1,0.2-0.1
	c-1.1,0-1.8,0.1-2.5,0.1h-0.5c0.4,0,0.4,0.1-0.1,0.1h-1.7c-0.2,0-0.5,0-0.7-0.1c-0.6,0-1.2,0-1.8,0.1c-0.2,0-1.4,0-0.8-0.1
	c-0.6,0.1-1.2,0.2-1.8,0.1h0.3c-1.2,0-2.8,0.1-3.3,0c0.4-0.1-1.4-0.1-1.6-0.3c-0.1,0-0.3,0-0.4,0c-0.1,0-0.3,0-0.4,0
	c0.4,0-0.3,0.1,0.6,0.1c-0.7,0.1-1.3,0.2-2,0.1l0,0h0.8c0.2,0,0.3,0,0.5,0c-1.4,0,0.2-0.1-1.2-0.1h-0.8c-0.5-0.1,0.8-0.1,0.4-0.1
	c0.6,0,1.5-0.1,1.3-0.2C11.9,0.9,12,1,11,1h-0.1c-0.2,0-0.4,0-0.6,0.1c-0.1,0-0.2,0-0.3,0C9.5,1.1,9.1,1.1,8.6,1.2
	c1.4-0.1,1.2,0,2.6,0c-0.4,0-0.9,0-1.3,0.1v0c-0.5,0-0.9,0-1.5,0h0.4c-0.6,0-1.3,0-1.9,0h-1L5.1,1.4c0,0-0.6,0-0.3-0.1
	c-0.4,0-0.9,0-1.3,0.1c-0.7-0.1,0.6,0,0.6-0.1c-0.8,0-1.6,0-2.4,0H1.6c-0.1,0-0.2,0,0-0.1H1.3c0,0.1,0,0.2,0,0.3c0-0.1,0-0.2,0-0.3
	h0.4c-0.1,0-0.3,0-0.4,0v1.5c0,0.7,0.1,0.2,0.1,0.4c0-0.3,0-0.7,0-1v0.7C1.3,2.9,1.3,3.2,1.3,3.5c0-0.4,0-0.3,0.1-0.4
	c0.1,0.6-0.1,0.6,0,1.3c0,0,0-0.6,0-0.1c0,0.2,0,0.4,0.1,0.6c0-0.2-0.1-0.2-0.2-0.5V4c0-0.6-0.1-0.4-0.1-0.5c0,0.5,0,0.9,0.1,1.4
	V4.8c0,0.3,0,0.5,0.1,0.8V5.5c0,0.2,0,0.4,0,0.7c0,0.3,0.2-0.3,0.2,0.8V6.9l-0.5-1v3.7C1,9.8,1,8.6,0.9,8.6V8.1c0,0,0,1.2,0.1,0.7
	c0-1,0-1.5-0.1-2.5C0.9,6.6,1,7.6,1,8.2v0.5c0,0.4,0,0.8,0.1,1.2v0.2L1,10.4z M38.5,12.1L38.5,12.1C38.4,12.1,38.5,12.1,38.5,12.1z
	 M3.2,0.7H0.7c0.5,0,1,0.1,1.5,0.1C1.8,0.9,1.4,0.9,0.9,0.9h1l1-0.1l0.8-0.1c-0.2,0-0.4,0-0.6,0H3.2z M3.7,0.9L3.7,0.9
	C3.8,0.9,3.8,0.9,3.7,0.9z M0.9,5.6v0.2C1,5.7,1,5.6,0.9,5.6z M1.1,2.6C1.1,2.3,1,2,1,1.7v0.8c0,0,0,0.1,0,0.1C1,2.4,1,2.3,1,2.3
	c-0.1,0.5,0.1,0.4,0,1C1.1,3.5,1.1,2.7,1.1,2.6L1.1,2.6z M38.9,0.9h-0.2c-0.6,0-1.2,0-1.8,0c-0.2,0-0.4,0-0.6-0.1h0.4
	C38.4,0.7,37.6,0.9,38.9,0.9z M31.4,0.8L31.4,0.8c-1.4,0.1-2.6,0.2-3.4,0.1C28.5,1,28.9,1,29.2,1H29h-0.7c0.3,0,0.6,0,0.8,0l1.2-0.1
	h0.8c-0.2,0-0.5,0-0.7,0c-0.1,0,0.7,0,0.2-0.1c0.6,0,1.2,0,1.9,0l0.1,0.1c0.3,0,0.6,0,0.8,0c-0.7,0,0.1,0.1-0.4,0.1
	c0.2,0,0,0.1,0.5,0.1c0.3,0,0.7,0,1,0c0.5,0-0.3,0,0.2,0.1s0.6-0.1,0.6-0.1c-0.6,0-0.7,0.1-1.1,0.1l1,0h-0.4c0.2,0,0.3,0,0.5,0h0.2
	c-0.4,0-0.7,0-1.1,0h0.1c-0.2,0-0.4,0-0.6,0c-0.4,0-0.7,0-1.1,0h0.2L31.4,0.8z M12.1,0.7c0.8,0.2,1.6,0.3,2.4,0.2h-0.1
	c0.8,0.1,1.6-0.1,2.6,0c-0.3,0-0.7,0.1-1,0.1h0.5C16.4,1,17,1,17.4,1L17.1,1c-0.3,0-0.5,0-0.8,0C15.8,1,15.4,1,14.9,1
	c0,0,1.1,0,0.6,0.1h0.9c-0.4,0-0.1,0.1-0.4,0.1h0.7c0,0-1,0-0.5,0.1c0.4,0,0.7,0,1.1,0l0,0c0.3,0,0.6,0,0.9,0H18
	c-0.2,0-0.4,0.1-0.6,0.1c-0.2,0,0.5,0,0.2-0.1s-1.1,0-0.8,0h0.5c0,0,0.4,0,0.4-0.1h1c0.1,0-0.1-0.1,0.5-0.1c0.7,0,1.5,0,2.2,0h1.1
	c-0.2,0-0.7,0-0.6,0.1h0.5c0.3,0,0.5,0,0.8-0.1c0.6-0.1-0.6-0.1-0.5-0.1h1.8c-0.2,0-0.3,0-0.3,0.1c0.2,0,0.4,0,0.6,0
	c0.4,0,0.8-0.1,1.2,0h-0.2c0.3,0,0.6,0,0.9,0h0.5C27,1,27.1,1,27.5,1l0,0c-0.7,0-1.4,0-2.1,0h0.1c-0.7,0-1.3,0-2,0
	c0,0-0.1,0-0.1-0.1h-1.4L21,1h-0.5c-0.2,0-0.4,0-0.7,0h0.9c0.1,0,0-0.1-0.4-0.1l0,0c0,0-0.6,0-0.4,0.1c-0.8,0-2.2-0.1-3.4,0
	c1-0.2-0.7-0.2,0.3-0.2c-0.5,0-0.9,0-1.4,0H16c-1.2,0-2,0.1-3.2,0.1l0,0L12.1,0.7z M9.8,0.7H8.6c0.4,0,0.7,0.1,0.1,0.1
	c0,0-0.1,0,0.1-0.1c-0.4,0-1.2-0.1-1,0c0.7-0.1,0.2,0.1,0.8,0H7.6c0.3,0-0.1-0.1-0.5-0.1H6c0.1,0-0.2,0.1,0.4,0.1
	c-0.3,0-0.6,0-0.8,0c0.1,0,0.2,0,0.4,0c-0.2,0-0.4,0-0.6-0.1H4.3l0.4,0.1h1c0.8,0,0.5,0.1,1.4,0.1c0.5,0,0.9,0,1.4-0.1
	c0.3,0,0.6,0,0.9,0c0.4-0.1,1.4-0.1,1.1-0.1c-0.3,0-0.6,0-0.9,0h0.2C9.9,0.9,9.9,0.8,9.8,0.7L9.8,0.7z"/>
<path class="st0" d="M42.7,5.3c0,0.2,0,0.6,0,0.5S42.8,5.1,42.7,5.3z"/>
<path class="st0" d="M42.7,5.8L42.7,5.8z"/>
<path class="st0" d="M42.4,6.2c0,0.3,0,0.5,0,0.8c-0.1,0.2,0-0.6-0.1-0.8c0,0.7,0.1,0.9,0.1,1.5C42.4,7.2,42.4,6.7,42.4,6.2z"/>
<polygon class="st0" points="42.2,5.9 42.3,6.3 42.3,6.3 42.2,5.9 "/>
<path class="st0" d="M39.1,0.3c-0.1,0-0.3,0-0.4,0H39.1z"/>
<path class="st0" d="M29.6,12.8L29.6,12.8z"/>
<path class="st0" d="M29,0.5c0.8,0,1.2-0.1,2-0.1c-1.1-0.1-1.4,0.1-2.4,0L29,0.5z"/>
<path class="st0" d="M29.3,0.2c0.1,0.1-0.6,0.1-0.5,0.1c0.5,0,0.3-0.1,0.8,0L29.3,0.2z"/>
<polygon class="st0" points="33,1.2 32.7,1.3 32.9,1.2 "/>
<polygon class="st0" points="25.5,0.3 25.6,0.3 25.2,0.2 "/>
<path class="st0" d="M25.7,0.2"/>
<polygon class="st0" points="32.6,1.4 33,1.4 33.2,1.4 "/>
<path class="st0" d="M29.4,1h0.3C29.7,1,29.2,1,29.4,1z"/>
<polygon class="st0" points="23.1,0.2 22.7,0.3 22.7,0.3 23.1,0.3 "/>
<path class="st0" d="M26.8,1.2c0.2,0-0.7,0-0.2,0S26.9,1.2,26.8,1.2z"/>
<path class="st0" d="M22,0.9"/>
<path class="st0" d="M22,0.9h0.5C22.3,0.9,22.2,0.9,22,0.9z"/>
<path class="st0" d="M20,0.9h0.4C20.1,0.9,20,0.9,20,0.9z"/>
<path class="st0" d="M12.6,0.1c0.6,0,0.7,0,0.7,0.1c0.3,0,0.5,0,0.8-0.1H12.6z"/>
<path class="st0" d="M14.1,0.1"/>
<polygon class="st0" points="22.3,1.3 22,1.4 22.1,1.3 "/>
<path class="st0" d="M11.7,0.1L11.7,0.1z"/>
<path class="st0" d="M14,0.8h0.6C14.4,0.8,14.2,0.8,14,0.8z"/>
<path class="st0" d="M10.1,0.2c0.1,0,0.3,0,0.2,0.1C10.4,0.3,10.6,0.2,10.1,0.2z"/>
<polygon class="st0" points="12.9,0.8 13,0.8 13.4,0.8 "/>
<path class="st0" d="M14.4,1.3c0.4,0-0.7-0.1,0.1-0.1c-1,0,0.1,0.1-0.7,0C14.2,1.3,14.4,1.3,14.4,1.3z"/>
<path class="st0" d="M13.8,1.2"/>
<path class="st0" d="M7.4,1"/>
<path class="st0" d="M11.4,1.3l0.7-0.1c-0.5,0-1,0-1.5,0.1c0.3,0,0.7,0,1,0L11.4,1.3z"/>
<path class="st0" d="M3.7,0.1L3.7,0.1C3.7,0.1,3.5,0.1,3.7,0.1z"/>
<path class="st0" d="M3.5,0.1"/>
<path class="st0" d="M8.7,0.9h0.6C9.1,0.9,8.9,0.9,8.7,0.9z"/>
<polygon class="st0" points="1.6,0.2 2.1,0.2 1.5,0.2 "/>
<polygon class="st0" points="0.1,2.3 0.1,2.4 0.1,2.8 0.2,2.7 "/>
<path class="st0" d="M2.3,1.4c0.3,0,0.6,0,0.5-0.1H2.2c0.2,0,0.2,0,0.5,0L2.3,1.4z"/>
<path class="st0" d="M7.7,12.8c-0.3,0-0.6,0-0.9,0H6.4c-0.7-0.1,0.6-0.1,0.9-0.1H5.6c0.2,0,0.3,0,0.5,0c-0.4,0-0.8,0-1.2,0
	c0.3,0,0.1,0-0.1,0.1h1c-0.3-0.1,1,0,1.3-0.1h0.3c0.3,0,0.5,0,0.8,0h7.2c0.5-0.1-0.5,0-0.4-0.1c0.2,0,0.5,0,0.7,0
	c0.1,0-0.2-0.1-0.2-0.1c-0.8,0-0.9,0.1-1.7,0.1c0,0,0.3-0.1-0.2-0.1h0.1c-0.4,0-0.8,0-1.2,0v0.1h-1.5c-1.2,0.1-0.7,0-2,0l0.6-0.1
	H8.8c0,0-0.1,0,0.2-0.1l-1.6,0.1C7.1,12.8,7.6,12.8,7.7,12.8z"/>
<path class="st0" d="M5.6,12.8"/>
<path class="st0" d="M16.8,12.9"/>
<path class="st0" d="M3.3,12.9c0.3,0-0.2,0-0.3,0.1h1c0,0,0.1,0,0.1-0.1H3.3z"/>
<path class="st0" d="M4.4,13H4.1C4.2,13,4.3,13,4.4,13z"/>
<polygon class="st0" points="4.3,11.9 4.4,11.9 4.7,11.9 "/>
<path class="st0" d="M7,12c-0.2,0-0.5,0-0.7,0C6.7,12,6.5,12,7,12z"/>
<polygon class="st0" points="6.4,11.6 6.9,11.6 6.8,11.6 "/>
<path class="st0" d="M20.2,12.7"/>
<path class="st0" d="M16.4,12.8c1,0.1-0.7,0-0.4,0.1h1.3c-0.1,0-0.2,0-0.2-0.1c0.3,0,0.7,0,1,0.1h4.6c0.6,0-0.4-0.1,0.1-0.1
	c-0.6,0-1.3,0-1.9,0h-0.1l-0.4,0.1h0.4c-0.7,0-1.4,0-2.1,0c0.5-0.1,1-0.1,1.5-0.1c0,0-0.2-0.1,0-0.1C18.9,12.7,17.8,12.7,16.4,12.8z
	"/>
<path class="st0" d="M29.4,12.7"/>
<path class="st0" d="M28.9,12.7l-0.6,0.1h1l0.1-0.1c-0.2,0-0.4,0-0.6,0L28.9,12.7z"/>
<path class="st0" d="M27.6,12.8c0.5,0,0.5-0.1,0.2-0.1c0.5,0,0.2,0.1,0.6,0c-0.2,0-0.5,0-0.7,0L27.6,12.8z"/>
<polygon class="st0" points="23.8,12.8 24,12.8 23.6,12.8 "/>
<path class="st0" d="M24,12.8L24,12.8z"/>
<path class="st0" d="M25.2,12.8"/>
<path class="st0" d="M24.8,12.8L24.8,12.8z"/>
<path class="st0" d="M24.3,12.8c0.2,0.1,0.4,0.1,0.6,0.1l-0.1-0.1L24.3,12.8z"/>
<polygon class="st0" points="9.6,11.7 10,11.7 10,11.7 9.6,11.7 "/>
<path class="st0" d="M11.9,11.7L11.9,11.7z"/>
<path class="st0" d="M13.7,11.4c0.5,0-0.6,0.1,0.2,0.1c-0.2,0.1-0.5,0.1-0.7,0.1c0,0,0.4,0,0.1-0.1s-0.4,0-0.3,0.1
	c-0.3,0-0.6,0-0.8,0.1h2.4c0.4-0.1,0.1-0.2,0.1-0.2C14.4,11.4,14,11.4,13.7,11.4z"/>
<path class="st0" d="M12.9,11.4h-0.4C12.6,11.4,12.8,11.4,12.9,11.4z"/>
<path class="st0" d="M17.9,12.1c0,0,0.4,0,0.4-0.1h-0.6C17.7,12,17.8,12,17.9,12.1z"/>
<path class="st0" d="M17.4,12.1"/>
<path class="st0" d="M17.9,12.1"/>
<path class="st0" d="M26.7,12.8c0.1,0,0.3,0,0.4,0H26.7z"/>
<path class="st0" d="M36.7,12.7L36.7,12.7z"/>
<path class="st0" d="M40.2,12.1"/>
<path class="st0" d="M40.3,12h1.2C41.1,11.9,40.7,11.9,40.3,12z"/>
<text transform="matrix(1 0 0 1 2.86 8.18)" class="st1 st2 st3">Go </text>
<text transform="matrix(1 0 0 1 13.91 8.18)" class="st1 st2 st3">t</text>
<text transform="matrix(1 0 0 1 16.9 8.18)" class="st1 st2 st3">o Me</text>
<text transform="matrix(1 0 0 1 32.84 8.18)" class="st1 st2 st3">n</text>
<text transform="matrix(1 0 0 1 36.66 8.18)" class="st1 st2 st3">u</text>
</svg>
