<svg id="Layer_1" data-name="Layer 1" xmlns="http://www.w3.org/2000/svg" viewBox="0 0 39.65 7.25"><defs><style>.cls-1{fill:#8b571b;}.cls-2{fill:#663402;}</style></defs><title>rate-stars</title><polygon class="cls-1" points="6.11 7.25 3.77 5.52 1.41 7.21 2.33 4.45 0 2.73 2.9 2.75 3.82 0 4.7 2.77 7.6 2.79 5.24 4.48 6.11 7.25"/><polygon class="cls-1" points="14.12 7.25 11.79 5.52 9.43 7.21 10.35 4.45 8.01 2.73 10.92 2.75 11.84 0 12.71 2.77 15.61 2.79 13.25 4.48 14.12 7.25"/><polygon class="cls-1" points="22.14 7.25 19.8 5.52 17.44 7.21 18.36 4.45 16.03 2.73 18.93 2.75 19.85 0 20.72 2.77 23.63 2.79 21.26 4.48 22.14 7.25"/><polygon class="cls-1" points="30.15 7.25 27.82 5.52 25.45 7.21 26.37 4.45 24.04 2.73 26.94 2.75 27.86 0 28.74 2.77 31.64 2.79 29.28 4.48 30.15 7.25"/><polygon class="cls-2" points="38.16 7.25 35.83 5.52 33.47 7.21 34.39 4.45 32.05 2.73 34.96 2.75 35.88 0 36.75 2.77 39.65 2.79 37.29 4.48 38.16 7.25"/></svg>