<svg id="Layer_1" data-name="Layer 1" xmlns="http://www.w3.org/2000/svg" viewBox="0 0 6.45 5.98"><defs><style>.cls-1{fill:#cab23c;}</style></defs><title>stars</title><g id="Layer_1-2" data-name="Layer 1-2"><polygon class="cls-1" points="2.29 5.98 1.36 5.12 0.12 5.4 0.65 4.25 0 3.16 1.26 3.3 2.1 2.35 2.35 3.59 3.52 4.09 2.41 4.71 2.29 5.98"/><polygon class="cls-1" points="6.19 1.45 5.81 1.24 5.41 1.43 5.5 1 5.18 0.68 5.62 0.63 5.83 0.24 6.02 0.64 6.45 0.71 6.13 1.01 6.19 1.45"/><polygon class="cls-1" points="3.6 1.6 2.93 1.47 2.44 1.96 2.36 1.28 1.75 0.96 2.37 0.67 2.48 0 2.95 0.5 3.62 0.39 3.29 0.99 3.6 1.6"/></g></svg>